<svg id="visual" viewBox="0 0 900 600" width="900" height="600" xmlns="http://www.w3.org/2000/svg" xmlns:xlink="http://www.w3.org/1999/xlink" version="1.1"><rect x="0" y="0" width="900" height="600" fill="#ffffff"></rect><path d="M369 0L341.3 25C313.7 50 258.3 100 239.5 150C220.7 200 238.3 250 232.8 300C227.3 350 198.7 400 214.5 450C230.3 500 290.7 550 320.8 575L351 600L0 600L0 575C0 550 0 500 0 450C0 400 0 350 0 300C0 250 0 200 0 150C0 100 0 50 0 25L0 0Z" fill="#0066FF" stroke-linecap="round" stroke-linejoin="miter"></path></svg>